<svg width="16" height="16" viewBox="0 0 16 16" fill="none" xmlns="http://www.w3.org/2000/svg">
<path d="M12.2824 1.09305C11.8331 0.942297 11.3606 0.875547 10.8874 0.875547C9.84489 0.868047 8.83314 1.21305 7.99989 1.8498C7.93239 1.79805 7.84989 1.7523 7.77489 1.70805C7.69989 1.6623 7.56489 1.55055 7.45239 1.49055L7.16739 1.36305C7.01739 1.28055 6.86064 1.22055 6.69489 1.1673C6.67989 1.15305 6.65739 1.1373 6.62739 1.12305H6.58314C6.13989 0.972297 5.68239 0.889797 5.20989 0.875547H5.12739C4.91739 0.875547 4.70814 0.889797 4.49739 0.920547H4.40739C4.18239 0.949797 3.95814 1.0023 3.74064 1.0773C0.942391 1.99305 -0.0551096 5.03055 0.79239 7.68555C1.27239 9.0423 2.04564 10.273 3.05064 11.2848C4.51239 12.6948 6.11064 13.9398 7.82739 15.0048L8.02239 15.1255L8.20989 15.0123C9.92064 13.9398 11.5099 12.6948 12.9581 11.2923C13.9699 10.2805 14.7424 9.0423 15.2149 7.68555C16.0481 5.03055 15.0506 1.99305 12.2824 1.09305Z" fill="#F67952"/>
</svg>
