<svg width="12" height="12" viewBox="0 0 12 12" fill="none" xmlns="http://www.w3.org/2000/svg">
<g id="updated 1" clip-path="url(#clip0_33_315)">
<path id="Vector" d="M1.39027 6.01135C1.39027 7.55301 2.1562 8.91577 3.32826 9.73984C3.53481 9.88513 3.54579 10.1868 3.3474 10.343L3.34181 10.3474C3.21227 10.4494 3.03062 10.4561 2.89568 10.3614C1.52742 9.40045 0.633041 7.81027 0.633041 6.01135C0.633041 3.09348 3.04829 0.724731 5.96031 0.699829V1.45724C3.46623 1.48196 1.39027 3.51151 1.39027 6.01135Z" fill="white"/>
<path id="Vector_2" d="M6.09929 0.0226108L7.49089 0.974485C7.56541 1.02548 7.56541 1.13543 7.49089 1.18643L6.09929 2.1383C6.01405 2.19662 5.89842 2.13556 5.89842 2.03238V0.128629C5.89842 0.0253574 6.01405 -0.0356167 6.09929 0.0226108Z" fill="white"/>
<path id="Vector_3" d="M10.6027 5.98843C10.6027 4.44677 9.8367 3.08401 8.66464 2.25994C8.4581 2.11465 8.44711 1.81298 8.64551 1.6568L8.65109 1.6524C8.78064 1.55041 8.96228 1.54364 9.09723 1.63839C10.4656 2.59933 11.3599 4.18951 11.3599 5.98843C11.3599 8.90631 8.94873 11.2751 6.03662 11.3V10.5425C8.5307 10.5178 10.6027 8.48837 10.6027 5.98843Z" fill="white"/>
<path id="Vector_4" d="M5.89389 11.9772L4.50229 11.0253C4.42776 10.9743 4.42776 10.8644 4.50229 10.8134L5.89389 9.86152C5.97903 9.8032 6.09476 9.86427 6.09476 9.96745V11.8712C6.09476 11.9745 5.97903 12.0355 5.89389 11.9772Z" fill="white"/>
<path id="Vector_5" d="M8.35842 5.40981L6.07894 7.30019L5.50426 7.77681C5.36886 7.88896 5.19747 7.94984 5.02315 7.94984C4.99413 7.94984 4.96511 7.9482 4.93581 7.94481C4.73247 7.92091 4.54534 7.81306 4.42257 7.64909L3.53615 6.46751C3.33602 6.20064 3.39013 5.82179 3.65709 5.62129C3.92425 5.42116 4.30309 5.47527 4.50332 5.74223L5.1017 6.54012L5.10656 6.53618L7.5869 4.47917C7.84389 4.26622 8.22493 4.30174 8.43798 4.55873C8.65102 4.81572 8.61541 5.19676 8.35842 5.40981Z" fill="white"/>
<path id="Vector_6" d="M8.35848 5.40981L6.079 7.30019C5.70619 7.11406 5.37834 6.8568 5.10661 6.53618L7.58696 4.47917C7.84395 4.26622 8.22499 4.30174 8.43804 4.55873C8.65108 4.81572 8.61547 5.19676 8.35848 5.40981Z" fill="white"/>
</g>
<defs>
<clipPath id="clip0_33_315">
<rect width="12" height="12" fill="white"/>
</clipPath>
</defs>
</svg>
